<svg
  xmlns="http://www.w3.org/2000/svg"
  viewBox="0 0 400 445.42133"
  width="100%"
  id="svg2"
  version="1.1"
>
  <g transform="matrix(1.3333333,0,0,-1.3333333,0,445.42132)" id="g10">
    <g transform="scale(0.1)" id="g12">
      <path
        id="path14"
        style="fill:#1f2752;fill-opacity:1;fill-rule:nonzero;stroke:none"
        d="M 163.984,2631.04 C 113.41,2601.84 72.4141,2560.02 44.0586,2510.92 15.7109,2461.81 0,2405.4 0,2347 V 1670.33 993.672 C 0,935.27 15.7109,878.852 44.0586,829.75 72.4141,780.629 113.41,738.82 163.984,709.629 L 394.137,576.75 624.285,443.871 V 1670.33 2896.79 L 394.137,2763.91 163.984,2631.04"
      ></path>
      <path
        id="path16"
        style="fill:#1f2752;fill-opacity:1;fill-rule:nonzero;stroke:none"
        d="m 1416.19,0 v 3340.66 c -13.88,-3.65 -27.57,-8.22 -40.96,-13.71 -13.4,-5.49 -26.51,-11.91 -39.23,-19.25 L 1063.95,3150.63 791.906,2993.56 V 1670.33 347.09 L 1063.95,190.031 1336,32.9609 c 12.72,-7.3398 25.83,-13.7617 39.23,-19.25 C 1388.62,8.21875 1402.31,3.65234 1416.19,0"
      ></path>
      <path
        id="path18"
        style="fill:#f03e2c;fill-opacity:1;fill-rule:nonzero;stroke:none"
        d="m 2904.65,762.582 -660.42,381.298 -660.42,381.29 V 0 c 13.88,3.65234 27.56,8.21875 40.96,13.7109 13.4,5.4883 26.5,11.9102 39.22,19.25 L 2250,371.289 l 586,338.34 c 12.72,7.34 24.83,15.48 36.29,24.332 11.45,8.859 22.25,18.43 32.36,28.621"
      ></path>
      <path
        id="path20"
        style="fill:#f03e2c;fill-opacity:1;fill-rule:nonzero;stroke:none"
        d="m 3000,2347 c 0,14.68 -1,29.24 -2.94,43.59 -1.94,14.34 -4.83,28.48 -8.61,42.33 l -660.41,-381.29 -660.42,-381.3 660.42,-381.29 660.41,-381.29 c 3.78,13.84 6.67,27.98 8.61,42.32 1.94,14.352 2.94,28.91 2.94,43.602 V 1670.33 2347"
      ></path>
      <path
        id="path22"
        style="fill:#f03e2c;fill-opacity:1;fill-rule:nonzero;stroke:none"
        d="m 2836,2631.04 -586,338.33 -586.01,338.33 c -12.72,7.34 -25.82,13.76 -39.22,19.25 -13.4,5.49 -27.08,10.06 -40.96,13.71 v -762.58 -762.59 l 660.42,381.3 660.42,381.29 c -10.11,10.19 -20.91,19.76 -32.36,28.61 -11.46,8.86 -23.57,17 -36.29,24.35"
      ></path>
    </g>
  </g>
</svg>
