<svg width="100%" viewBox="0 0 50 50" fill="black" xmlns="http://www.w3.org/2000/svg">
<path d="M25 37C26.1046 37 27 36.1046 27 35C27 33.8954 26.1046 33 25 33C23.8954 33 23 33.8954 23 35C23 36.1046 23.8954 37 25 37Z" fill="black"/>
<path d="M25 15C21.6916 15 19 17.7343 19 21.0952C19 21.9368 19.6715 22.619 20.5 22.619C21.3284 22.619 22 21.9368 22 21.0952C22 19.4148 23.3458 18.0476 25 18.0476C26.6542 18.0476 28 19.4148 28 21.0952C28 22.7757 26.6542 24.1429 25 24.1429C24.1716 24.1429 23.5 24.8251 23.5 25.6667V29.4762C23.5 30.3178 24.1716 31 25 31C25.8284 31 26.5 30.3178 26.5 29.4762V26.9976C29.0849 26.3193 31 23.9302 31 21.0952C31 17.7343 28.3084 15 25 15Z" fill="black"/>
<path fill-rule="evenodd" clip-rule="evenodd" d="M25 42.2C34.4993 42.2 42.2 34.4993 42.2 25C42.2 15.5007 34.4993 7.8 25 7.8C15.5007 7.8 7.8 15.5007 7.8 25C7.8 34.4993 15.5007 42.2 25 42.2ZM25 45C36.0457 45 45 36.0457 45 25C45 13.9543 36.0457 5 25 5C13.9543 5 5 13.9543 5 25C5 36.0457 13.9543 45 25 45Z" fill="black"/>
</svg>
