<svg width="100%" viewBox="0 0 50 50" fill="none" xmlns="http://www.w3.org/2000/svg">
<path d="M42.9047 8.08675C42.9038 8.08706 42.903 8.08729 42.902 8.08759L6.06015 20.2773C4.74898 20.7111 4.6221 22.4826 5.85835 23.0912L17.2616 28.705V40.1766C17.2616 41.4791 18.8152 42.1735 19.8241 41.3512L24.0203 37.9308L27.7855 43.3327C28.4826 44.333 30.0306 44.1787 30.5135 43.0709L44.8704 10.1254C45.3859 8.94334 44.2884 7.65024 42.9047 8.08675ZM18.6567 25.969L10.6002 22.0028L34.8238 13.9881L18.6567 25.969ZM20.3865 36.9134V32.7175L22.2515 35.3932L20.3865 36.9134ZM28.7587 39.3024C28.6396 39.1317 20.9778 28.1395 20.9525 28.1031L39.6902 14.2173L28.7587 39.3024Z" fill="black"/>
</svg>
